<svg xmlns="http://www.w3.org/2000/svg" viewBox="0 0 64 64" role="img" aria-label="WhatsApp">
  <circle cx="32" cy="32" r="31" fill="#25D366"/>
  <path fill="#fff" d="M32.2 12.5c-10.4 0-18.8 8.3-18.8 18.6 0 3.3.9 6.5 2.5 9.2l-2.7 10 10.3-2.7c2.6 1.4 5.6 2.1 8.7 2.1 10.4 0 18.8-8.3 18.8-18.6s-8.4-18.6-18.8-18.6Zm0 33.9c-2.8 0-5.4-.7-7.7-2.1l-.6-.3-6.1 1.6 1.6-5.9-.4-.6c-1.5-2.4-2.3-5.1-2.3-7.9 0-8.4 6.9-15.2 15.4-15.2 4.1 0 8 1.6 10.9 4.5s4.5 6.7 4.5 10.7c.1 8.3-6.8 15.2-15.3 15.2Z"/>
  <path fill="#fff" d="M40.7 34.8c-.5-.2-2.8-1.4-3.2-1.5-.4-.2-.8-.2-1.1.2-.3.5-1.2 1.5-1.5 1.8-.3.3-.5.3-1 .1-.5-.2-2-.7-3.8-2.3-1.4-1.2-2.4-2.7-2.6-3.2-.3-.5 0-.7.2-1 .2-.2.5-.5.7-.8.2-.3.3-.5.5-.8.2-.3.1-.6 0-.8-.1-.2-1.1-2.6-1.5-3.5-.4-.9-.8-.8-1.1-.8h-.9c-.3 0-.8.1-1.2.6-.4.5-1.6 1.6-1.6 3.8s1.6 4.4 1.9 4.7c.2.3 3.2 4.8 7.8 6.8 1.1.5 1.9.7 2.6.9 1.1.3 2 .3 2.8.2.9-.1 2.8-1.1 3.2-2.2.4-1.1.4-2 .3-2.2-.2-.3-.5-.4-1-.6Z"/>
</svg>
